<svg xmlns="http://www.w3.org/2000/svg" xmlns:xlink="http://www.w3.org/1999/xlink" width="56" height="36.031" viewBox="0 0 56 36.031">
  <defs>
    <style>
      .cls-1, .cls-2 {
        fill: #fff;
        fill-rule: evenodd;
      }

      .cls-1 {
        filter: url(#filter);
      }
    </style>
    <filter id="filter" x="358.563" y="23.969" width="28.343" height="36" filterUnits="userSpaceOnUse">
      <feFlood result="flood" flood-color="#fff"/>
      <feComposite result="composite" operator="in" in2="SourceGraphic"/>
      <feBlend result="blend" in2="SourceGraphic"/>
    </filter>
  </defs>
  <path id="_9_copy_3" data-name="9 copy 3" class="cls-1" d="M374.345,54.554a9.718,9.718,0,0,1-3.328-.088l-0.446,5.284a14.347,14.347,0,0,0,10-1.882,12.715,12.715,0,0,0,5.975-8.3,15.859,15.859,0,0,0,0-6.574,31.818,31.818,0,0,0-3.128-8.513,24.825,24.825,0,0,0-5.856-7.69q-6.006-5.062-12.874-.96a12.145,12.145,0,0,0-5.628,7,11.649,11.649,0,0,0,.963,9.028,10.626,10.626,0,0,0,6.347,5.782,9.418,9.418,0,0,0,7.851-1.085,10.674,10.674,0,0,0,3.7-3.622,13.218,13.218,0,0,0,1.757-4.077,15.967,15.967,0,0,1,2,8.608,7.836,7.836,0,0,1-4.177,6.128A8,8,0,0,1,374.345,54.554Zm-6.555-12.29a6.637,6.637,0,0,1-3.914-8.015,6.833,6.833,0,0,1,3.165-3.88,5.82,5.82,0,0,1,4.856-.68,5.927,5.927,0,0,1,3.674,3.111,5.82,5.82,0,0,1,.31,4.832,7.541,7.541,0,0,1-3.372,3.946A5.4,5.4,0,0,1,367.79,42.264Z" transform="translate(-347 -23.969)"/>
  <path id="_9_copy_4" data-name="9 copy 4" class="cls-2" d="M372.6,44.432a10.64,10.64,0,0,0-1.268-2.95l3.894-2.306a15.927,15.927,0,0,1,2.164,9.644,11.487,11.487,0,0,1-9.258,10.718,23.5,23.5,0,0,1-7.66.269,19.877,19.877,0,0,1-8.014-2.473q-6.053-3.556-5.381-11.189a11.557,11.557,0,0,1,3.338-7.566,8.659,8.659,0,0,1,7.275-2.394,9.169,9.169,0,0,1,6.726,3.6,10.393,10.393,0,0,1,2,7.426,10.656,10.656,0,0,1-1.445,4.62,11.233,11.233,0,0,1-2.5,3.045,11.74,11.74,0,0,0,7.328-1.311q2.825-1.728,3.2-5.953A8.915,8.915,0,0,0,372.6,44.432Zm-11.8-1.44a5.287,5.287,0,0,0-3.689-1.96,4.6,4.6,0,0,0-3.873,1.345,6.521,6.521,0,0,0-1.836,4.236,6.425,6.425,0,0,0,1.23,4.6,5.172,5.172,0,0,0,3.712,2.169,4.355,4.355,0,0,0,3.821-1.465,7.261,7.261,0,0,0,1.811-4.445A5.949,5.949,0,0,0,360.807,42.993Z" transform="translate(-347 -23.969)"/>
  <path id="_9_copy_6" data-name="9 copy 6" class="cls-2" d="M381.8,47.1a8.807,8.807,0,0,1,1.051-2.444l-3.227-1.91a13.194,13.194,0,0,0-1.793,7.99,9.518,9.518,0,0,0,7.67,8.88,19.453,19.453,0,0,0,6.348.223,16.477,16.477,0,0,0,6.639-2.049q5.014-2.946,4.459-9.27a9.572,9.572,0,0,0-2.766-6.269,7.17,7.17,0,0,0-6.027-1.984,7.6,7.6,0,0,0-5.574,2.984,8.623,8.623,0,0,0-1.656,6.153,8.839,8.839,0,0,0,1.2,3.828,9.3,9.3,0,0,0,2.067,2.523,9.731,9.731,0,0,1-6.072-1.086,5.974,5.974,0,0,1-2.648-4.932A7.385,7.385,0,0,1,381.8,47.1Zm9.773-1.193a4.383,4.383,0,0,1,3.057-1.624,3.808,3.808,0,0,1,3.209,1.114,5.4,5.4,0,0,1,1.521,3.51,5.325,5.325,0,0,1-1.019,3.808,4.286,4.286,0,0,1-3.076,1.8A3.606,3.606,0,0,1,392.1,53.3a6.012,6.012,0,0,1-1.5-3.682A4.933,4.933,0,0,1,391.57,45.906Z" transform="translate(-347 -23.969)"/>
  <path id="_9_copy_5" data-name="9 copy 5" class="cls-2" d="M378.838,53.2a9.1,9.1,0,0,1-1.71-2.256l-3.239,2.5a12.679,12.679,0,0,0,6.361,5.647,8.968,8.968,0,0,0,7.877-.421,11.318,11.318,0,0,0,3.738-3.477,25.291,25.291,0,0,0,3.186-6.578,21.881,21.881,0,0,0,1.275-7.954q-0.3-6.664-6.262-9.054a8.354,8.354,0,0,0-11.576,5.376,9.767,9.767,0,0,0,.069,7.271,8.426,8.426,0,0,0,4.769,4.638,7.8,7.8,0,0,0,4.014.539,8.993,8.993,0,0,0,3.247-.989,12.168,12.168,0,0,1-3.835,5.881,5.516,5.516,0,0,1-5.693.468A6.854,6.854,0,0,1,378.838,53.2Zm3.521-10.851a5.645,5.645,0,0,1-.027-3.981,4.533,4.533,0,0,1,2.514-2.855,4.865,4.865,0,0,1,3.88.049,5.2,5.2,0,0,1,2.955,2.864,5.478,5.478,0,0,1,.173,4.084,4.243,4.243,0,0,1-2.583,2.762,5.393,5.393,0,0,1-4.026-.152A4.827,4.827,0,0,1,382.359,42.348Z" transform="translate(-347 -23.969)"/>
</svg>
